# This file uses centimeters as units for non-parametric coordinates.

mtllib bed.mtl
g default
v -48.489874 8.831380 -1.124533
v -14.744358 8.831380 -1.124533
v -48.489874 9.831380 -1.124533
v -14.744358 9.831380 -1.124533
v -48.489874 9.831380 -48.772751
v -14.744358 9.831380 -48.772751
v -48.489874 8.831380 -48.772751
v -14.744358 8.831380 -48.772751
v -48.489874 9.831380 -4.626416
v -48.489874 9.831380 -45.270846
v -14.744358 9.831380 -4.626416
v -14.744358 9.831380 -45.270846
v -14.744358 8.831380 -45.270866
v -14.744358 8.831380 -4.626434
v -48.489874 8.831380 -45.270866
v -48.489874 8.831380 -4.626434
v -44.220897 8.831380 -1.124533
v -19.013337 8.831380 -1.124533
v -19.013337 8.831380 -4.626434
v -44.220897 8.831380 -4.626434
v -44.220897 8.831380 -45.270866
v -19.013337 8.831380 -45.270866
v -44.220897 8.831380 -48.772751
v -19.013337 8.831380 -48.772751
v -44.220897 9.831380 -48.772751
v -19.013337 9.831380 -48.772751
v -19.013337 9.831380 -45.270846
v -44.220897 9.831380 -45.270846
v -19.013337 9.831380 -4.626416
v -44.220897 9.831380 -4.626416
v -44.220897 9.831380 -1.124533
v -19.013337 9.831380 -1.124533
v -44.220897 0.000000 -4.626434
v -48.489874 0.000000 -4.626434
v -44.220897 0.000000 -1.124533
v -48.489874 0.000000 -1.124533
v -48.489874 0.000000 -48.772751
v -44.220897 0.000000 -48.772751
v -44.220897 0.000000 -45.270866
v -48.489874 0.000000 -45.270866
v -19.013337 0.000000 -48.772751
v -19.013337 0.000000 -45.270866
v -14.744358 0.000000 -48.772751
v -14.744358 0.000000 -45.270866
v -19.013337 0.000000 -4.626434
v -19.013337 0.000000 -1.124533
v -14.744358 0.000000 -4.626434
v -14.744358 0.000000 -1.124533
v -44.220897 21.142128 -48.772751
v -44.220897 21.142128 -45.270846
v -19.013337 21.142128 -45.270846
v -19.013337 21.142128 -48.772751
v -48.489874 21.142128 -45.270846
v -48.489874 21.142128 -48.772751
v -14.744358 21.142128 -45.270846
v -14.744358 21.142128 -48.772751
v -48.489874 21.142128 -1.124533
v -44.220897 21.142128 -1.124533
v -44.220897 21.142128 -4.626416
v -48.489874 21.142128 -4.626416
v -19.013337 21.142128 -1.124533
v -19.013337 21.142128 -4.626416
v -14.744358 21.142128 -1.124533
v -14.744358 21.142128 -4.626416
v -39.835992 23.648000 -48.772751
v -39.835992 23.648000 -45.270846
v -23.398243 23.648000 -45.270846
v -23.398243 23.648000 -48.772751
v -31.617117 8.831380 -1.124533
v -31.617117 8.831380 -4.626434
v -31.617117 8.831380 -45.270866
v -31.617117 8.831380 -48.772751
v -31.617117 9.831380 -48.772751
v -31.617117 21.142128 -48.772751
v -31.617117 25.522621 -48.772751
v -31.617117 25.522621 -45.270846
v -31.617117 21.142128 -45.270846
v -31.617117 9.831380 -45.270846
v -31.617117 9.831380 -4.626416
v -31.617117 9.831380 -1.124533
vt 0.375000 0.000000
vt 0.625000 0.000000
vt 0.375000 0.250000
vt 0.625000 0.250000
vt 0.375000 0.500000
vt 0.625000 0.500000
vt 0.375000 0.750000
vt 0.625000 0.750000
vt 0.375000 1.000000
vt 0.625000 1.000000
vt 0.875000 0.000000
vt 0.875000 0.250000
vt 0.125000 0.000000
vt 0.125000 0.250000
vt 0.356626 0.250000
vt 0.375000 0.268374
vt 0.143374 0.250000
vt 0.375000 0.481626
vt 0.625000 0.268374
vt 0.643374 0.250000
vt 0.625000 0.481626
vt 0.856626 0.250000
vt 0.625000 0.768374
vt 0.856626 0.000000
vt 0.625000 0.981626
vt 0.643374 0.000000
vt 0.143374 0.000000
vt 0.375000 0.768374
vt 0.356626 0.000000
vt 0.375000 0.981626
vt 0.406626 0.000000
vt 0.406626 1.000000
vt 0.593374 0.000000
vt 0.593374 1.000000
vt 0.593374 0.981626
vt 0.406626 0.981626
vt 0.406626 0.768374
vt 0.593374 0.768374
vt 0.406626 0.750000
vt 0.593374 0.750000
vt 0.406626 0.500000
vt 0.593374 0.500000
vt 0.593374 0.481626
vt 0.406626 0.481626
vt 0.593374 0.268374
vt 0.406626 0.268374
vt 0.406626 0.250000
vt 0.593374 0.250000
vt 0.375000 0.981626
vt 0.406626 0.981626
vt 0.406626 1.000000
vt 0.375000 1.000000
vt 0.375000 0.750000
vt 0.406626 0.750000
vt 0.406626 0.768374
vt 0.375000 0.768374
vt 0.593374 0.768374
vt 0.593374 0.750000
vt 0.625000 0.750000
vt 0.625000 0.768374
vt 0.593374 1.000000
vt 0.593374 0.981626
vt 0.625000 0.981626
vt 0.625000 1.000000
vt 0.406626 0.481626
vt 0.593374 0.481626
vt 0.593374 0.500000
vt 0.406626 0.500000
vt 0.375000 0.481626
vt 0.375000 0.500000
vt 0.375000 0.250000
vt 0.406626 0.250000
vt 0.406626 0.268374
vt 0.375000 0.268374
vt 0.593374 0.268374
vt 0.593374 0.250000
vt 0.625000 0.250000
vt 0.625000 0.268374
vt 0.625000 0.481626
vt 0.625000 0.500000
vt 0.406626 0.500000
vt 0.406626 0.481626
vt 0.593374 0.481626
vt 0.593374 0.500000
vt 0.500000 0.000000
vt 0.500000 1.000000
vt 0.500000 0.981626
vt 0.500000 0.768374
vt 0.500000 0.750000
vt 0.500000 0.500000
vt 0.500000 0.500000
vt 0.500000 0.500000
vt 0.500000 0.481626
vt 0.500000 0.481626
vt 0.500000 0.481626
vt 0.500000 0.268374
vt 0.500000 0.250000
vt 0.375000 0.250000
vt 0.406626 0.250000
vt 0.406626 0.250000
vt 0.375000 0.250000
vt 0.406626 0.250000
vt 0.406626 0.268374
vt 0.406626 0.268374
vt 0.406626 0.250000
vt 0.406626 0.268374
vt 0.375000 0.268374
vt 0.375000 0.268374
vt 0.406626 0.268374
vt 0.375000 0.268374
vt 0.375000 0.250000
vt 0.375000 0.250000
vt 0.375000 0.268374
vt 0.593374 0.268374
vt 0.593374 0.250000
vt 0.593374 0.250000
vt 0.593374 0.268374
vt 0.593374 0.250000
vt 0.625000 0.250000
vt 0.625000 0.250000
vt 0.593374 0.250000
vt 0.625000 0.250000
vt 0.625000 0.268374
vt 0.625000 0.268374
vt 0.625000 0.250000
vt 0.625000 0.268374
vt 0.593374 0.268374
vt 0.593374 0.268374
vt 0.625000 0.268374
vt 0.593374 0.481626
vt 0.625000 0.481626
vt 0.625000 0.481626
vt 0.593374 0.481626
vt 0.625000 0.481626
vt 0.625000 0.500000
vt 0.625000 0.500000
vt 0.625000 0.481626
vt 0.625000 0.500000
vt 0.593374 0.500000
vt 0.593374 0.500000
vt 0.625000 0.500000
vn 0.000000 0.000000 1.000000
vn 0.000000 0.000000 1.000000
vn 0.000000 0.000000 1.000000
vn 0.000000 0.000000 1.000000
vn 0.000000 1.000000 0.000000
vn 0.000000 1.000000 0.000000
vn 0.000000 1.000000 0.000000
vn 0.000000 1.000000 0.000000
vn 0.000000 0.000000 -1.000000
vn 0.000000 0.000000 -1.000000
vn 0.000000 0.000000 -1.000000
vn 0.000000 0.000000 -1.000000
vn 0.000000 -1.000000 0.000000
vn 0.000000 -1.000000 0.000000
vn 0.000000 -1.000000 0.000000
vn 0.000000 -1.000000 0.000000
vn 1.000000 0.000001 0.000000
vn 1.000000 0.000001 0.000000
vn 1.000000 0.000001 0.000000
vn 1.000000 0.000001 0.000000
vn -1.000000 0.000000 0.000000
vn -1.000000 0.000000 0.000000
vn -1.000000 0.000000 0.000000
vn -1.000000 0.000000 0.000000
vn 0.000000 1.000000 0.000000
vn 0.000000 1.000000 0.000000
vn 1.000000 0.000000 0.000000
vn 1.000000 0.000000 0.000000
vn 0.000000 -1.000000 0.000000
vn 0.000000 -1.000000 0.000000
vn 0.000000 -1.000000 0.000000
vn 0.000000 -1.000000 0.000000
vn 1.000000 0.000000 0.000000
vn 1.000000 0.000000 0.000000
vn 0.000000 1.000000 0.000000
vn 0.000000 1.000000 0.000000
vn 0.222376 0.974961 0.000000
vn 0.222376 0.974961 0.000000
vn -1.000000 0.000000 0.000000
vn -1.000000 0.000000 0.000000
vn -1.000000 0.000000 0.000000
vn -1.000000 0.000000 0.000000
vn 0.000000 -1.000000 0.000000
vn 0.000000 -1.000000 0.000000
vn 0.000000 -1.000000 0.000000
vn 0.000000 -1.000000 0.000000
vn 0.000000 -1.000000 0.000000
vn 0.000000 -1.000000 0.000000
vn 0.000000 -1.000000 0.000000
vn 0.000000 -1.000000 0.000000
vn 0.000000 -1.000000 0.000000
vn 0.000000 -1.000000 0.000000
vn 0.000000 -1.000000 0.000000
vn 0.000000 -1.000000 0.000000
vn 0.000000 0.000000 -1.000000
vn 0.000000 0.000000 -1.000000
vn 0.000000 0.000000 -1.000000
vn 0.000000 0.000000 -1.000000
vn 0.000000 1.000000 0.000000
vn 0.000000 1.000000 0.000000
vn 0.000000 1.000000 0.000000
vn 0.000000 1.000000 0.000000
vn 0.000000 1.000000 0.000000
vn 0.000000 1.000000 0.000000
vn 0.000000 1.000000 0.000000
vn 0.000000 1.000000 0.000000
vn 0.000000 1.000000 0.000000
vn 0.000000 1.000000 0.000000
vn 0.000000 1.000000 0.000000
vn 0.000000 1.000000 0.000000
vn 0.000000 1.000000 0.000000
vn 0.000000 1.000000 0.000000
vn 0.000000 1.000000 0.000000
vn 0.000000 1.000000 0.000000
vn 0.000000 1.000000 0.000000
vn 0.000000 1.000000 0.000000
vn 0.000000 1.000000 0.000000
vn 0.000000 1.000000 0.000000
vn 0.000000 1.000000 0.000000
vn 0.000000 1.000000 0.000000
vn 0.000000 0.000000 -1.000000
vn 0.000000 0.000000 -1.000000
vn 0.000000 -1.000000 0.000000
vn 0.000000 -1.000000 0.000000
vn 0.000000 -1.000000 0.000000
vn 0.000000 -1.000000 0.000000
vn 0.000000 -1.000000 0.000000
vn 0.000000 -1.000000 0.000000
vn 0.000000 -1.000000 0.000000
vn 0.000000 -1.000000 0.000000
vn 0.000000 -1.000000 0.000000
vn 0.000000 -1.000000 0.000000
vn 0.000000 0.000000 1.000000
vn 0.000000 0.000000 1.000000
vn 0.000000 0.000000 1.000000
vn 0.000000 0.000000 1.000000
vn 0.000000 0.000000 1.000000
vn 0.000000 0.000000 1.000000
vn 0.000000 0.000000 -1.000000
vn 0.000000 0.000000 -1.000000
vn 0.000000 0.000000 -1.000000
vn 0.000000 0.000000 -1.000000
vn 1.000000 0.000000 0.000000
vn 1.000000 0.000000 0.000000
vn 1.000000 0.000000 0.000000
vn 1.000000 0.000000 0.000000
vn 0.000000 0.000000 1.000000
vn 0.000000 0.000000 1.000000
vn 0.000000 0.000000 1.000000
vn 0.000000 0.000000 1.000000
vn -1.000000 0.000000 0.000000
vn -1.000000 0.000000 0.000000
vn -1.000000 0.000000 0.000000
vn -1.000000 0.000000 0.000000
vn 0.000000 0.000000 -1.000000
vn 0.000000 0.000000 -1.000000
vn 0.000000 0.000000 -1.000000
vn 0.000000 0.000000 -1.000000
vn 1.000000 0.000000 0.000000
vn 1.000000 0.000000 0.000000
vn 1.000000 0.000000 0.000000
vn 1.000000 0.000000 0.000000
vn 0.000000 0.000000 1.000000
vn 0.000000 0.000000 1.000000
vn 0.000000 0.000000 1.000000
vn 0.000000 0.000000 1.000000
vn -1.000000 0.000000 0.000000
vn -1.000000 0.000000 0.000000
vn -1.000000 0.000000 0.000000
vn -1.000000 0.000000 0.000000
vn -1.000000 0.000000 0.000000
vn -1.000000 0.000000 0.000000
vn -1.000000 0.000000 0.000000
vn -1.000000 0.000000 0.000000
vn 0.000000 0.000000 -1.000000
vn 0.000000 0.000000 -1.000000
vn 0.000000 0.000000 -1.000000
vn 0.000000 0.000000 -1.000000
vn 1.000000 0.000000 0.000000
vn 1.000000 0.000000 0.000000
vn 1.000000 0.000000 0.000000
vn 1.000000 0.000000 0.000000
vn 0.000000 0.000000 1.000000
vn 0.000000 0.000000 1.000000
vn 0.000000 0.000000 1.000000
vn 0.000000 0.000000 1.000000
vn -1.000000 0.000000 0.000000
vn -1.000000 0.000000 0.000000
vn -1.000000 0.000000 0.000000
vn -1.000000 0.000000 0.000000
vn 0.000000 0.000000 -1.000000
vn 0.000000 0.000000 -1.000000
vn 0.000000 0.000000 -1.000000
vn 0.000000 0.000000 -1.000000
vn 1.000000 0.000000 0.000000
vn 1.000000 0.000000 0.000000
vn 1.000000 0.000000 0.000000
vn 1.000000 0.000000 0.000000
vn 0.000000 0.000000 1.000000
vn 0.000000 0.000000 1.000000
vn 0.000000 0.000000 1.000000
vn 0.000000 0.000000 1.000000
vn 0.000000 0.000000 1.000000
vn 0.000000 0.000000 1.000000
vn 0.000000 0.000000 1.000000
vn 0.000000 0.000000 1.000000
vn 0.000000 0.000000 -1.000000
vn 0.000000 0.000000 -1.000000
vn 0.000000 0.000000 -1.000000
vn 0.000000 0.000000 -1.000000
vn 0.000000 0.000000 1.000000
vn 0.000000 0.000000 1.000000
vn 0.000000 0.000000 1.000000
vn 0.000000 0.000000 1.000000
vn 0.000000 0.000000 -1.000000
vn 0.000000 0.000000 -1.000000
vn 0.000000 0.000000 -1.000000
vn 0.000000 0.000000 -1.000000
vn -1.000000 0.000000 0.000000
vn -1.000000 0.000000 0.000000
vn -1.000000 0.000000 0.000000
vn -1.000000 0.000000 0.000000
vn 0.000000 0.000000 1.000000
vn 0.000000 0.000000 1.000000
vn 0.000000 0.000000 1.000000
vn 0.000000 0.000000 1.000000
vn 1.000000 0.000000 0.000000
vn 1.000000 0.000000 0.000000
vn 1.000000 0.000000 0.000000
vn 1.000000 0.000000 0.000000
vn 0.000000 0.000000 -1.000000
vn 0.000000 0.000000 -1.000000
vn 0.000000 0.000000 -1.000000
vn 0.000000 0.000000 -1.000000
vn 0.000000 0.000000 1.000000
vn 0.000000 0.000000 1.000000
vn 0.000000 0.000000 1.000000
vn 0.000000 0.000000 1.000000
vn 1.000000 0.000000 0.000000
vn 1.000000 0.000000 0.000000
vn 1.000000 0.000000 0.000000
vn 1.000000 0.000000 0.000000
vn 0.000000 0.000000 -1.000000
vn 0.000000 0.000000 -1.000000
vn 0.000000 0.000000 -1.000000
vn 0.000000 0.000000 -1.000000
vn -1.000000 0.000000 0.000000
vn -1.000000 0.000000 0.000000
vn -1.000000 0.000000 0.000000
vn -1.000000 0.000000 0.000000
vn -1.000000 0.000000 0.000000
vn -1.000000 0.000000 0.000000
vn -1.000000 0.000000 0.000000
vn -1.000000 0.000000 0.000000
vn 0.000000 0.000000 1.000000
vn 0.000000 0.000000 1.000000
vn 0.000000 0.000000 1.000000
vn 0.000000 0.000000 1.000000
vn 1.000000 0.000000 0.000000
vn 1.000000 0.000000 0.000000
vn 1.000000 0.000000 0.000000
vn 1.000000 0.000000 0.000000
vn 0.000000 0.000000 -1.000000
vn 0.000000 0.000000 -1.000000
vn 0.000000 0.000000 -1.000000
vn 0.000000 0.000000 -1.000000
vn -0.496170 0.868225 0.000000
vn -0.496170 0.868225 0.000000
vn -0.496170 0.868225 0.000000
vn -0.496170 0.868225 0.000000
vn 0.000000 0.000000 1.000000
vn 0.000000 0.000000 1.000000
vn 0.000000 0.000000 1.000000
vn 0.000000 0.000000 1.000000
vn 0.496170 0.868225 0.000000
vn 0.496170 0.868225 0.000000
vn 0.496170 0.868225 0.000000
vn 0.496170 0.868225 0.000000
vn 0.000000 0.000000 -1.000000
vn 0.000000 0.000000 -1.000000
vn 0.000000 0.000000 -1.000000
vn 0.000000 0.000000 -1.000000
vn 0.000000 -1.000000 0.000000
vn 0.000000 -1.000000 0.000000
vn 0.000000 0.000000 -1.000000
vn 0.000000 0.000000 -1.000000
vn 0.000000 0.000000 -1.000000
vn 0.000000 0.000000 -1.000000
vn -0.222376 0.974961 0.000000
vn -0.222376 0.974961 0.000000
vn 0.000000 0.000000 1.000000
vn 0.000000 0.000000 1.000000
vn 0.000000 0.000000 1.000000
vn 0.000000 0.000000 1.000000
vn 0.000000 1.000000 0.000000
s 1
g Bed_frame
usemtl initialShadingGroup
f 32/48/1 18/33/2 2/2/3 4/4/4
s 2
f 29/45/5 27/43/6 78/95/7 79/96/8
s 3
f 72/89/9 73/90/10 26/42/11 24/40/12
s 4
f 70/87/13 71/88/14 22/38/15 19/35/16
s 5
f 11/20/17 14/26/18 13/24/19 12/22/20
s 6
f 9/15/21 16/29/22 1/1/23 3/3/24
s 2
f 79/96/8 80/97/25 32/48/26 29/45/5
s 5
f 2/2/27 14/26/18 11/20/17 4/4/28
s 4
f 69/86/29 70/87/13 19/35/16 18/34/30
f 71/88/14 72/89/31 24/40/32 22/38/15
s 5
f 12/22/20 13/24/19 8/11/33 6/12/34
s 7
f 75/92/35 76/93/36 67/83/37 68/84/38
s 6
f 7/13/39 15/27/40 10/17/41 5/14/42
f 10/17/41 15/27/40 16/29/22 9/15/21
s off
f 34/49/43 33/50/44 35/51/45 36/52/46
s 4
f 15/28/47 21/37/48 20/36/49 16/30/50
s off
f 37/53/51 38/54/52 39/55/53 40/56/54
s 3
f 5/5/55 25/41/56 23/39/57 7/7/58
s off
f 53/69/59 50/65/60 49/68/61 54/70/62
s 2
f 30/46/63 28/44/64 10/18/65 9/16/66
s off
f 57/71/67 58/72/68 59/73/69 60/74/70
f 62/75/71 61/76/72 63/77/73 64/78/74
s 2
f 11/19/75 12/21/76 27/43/6 29/45/5
s off
f 52/67/77 51/66/78 55/79/79 56/80/80
s 3
f 24/40/12 26/42/11 6/6/81 8/8/82
s off
f 42/57/83 41/58/84 43/59/85 44/60/86
s 4
f 19/35/16 22/38/15 13/23/87 14/25/88
s off
f 46/61/89 45/62/90 47/63/91 48/64/92
s 1
f 80/97/93 69/85/94 18/33/2 32/48/1
f 1/1/95 17/31/96 31/47/97 3/3/98
s off
f 16/30/99 20/36/100 33/50/101 34/49/102
f 20/36/103 17/32/104 35/51/105 33/50/106
f 17/32/107 1/9/108 36/52/109 35/51/110
f 1/9/111 16/30/112 34/49/113 36/52/114
f 7/7/115 23/39/116 38/54/117 37/53/118
f 23/39/119 21/37/120 39/55/121 38/54/122
f 21/37/123 15/28/124 40/56/125 39/55/126
f 15/28/127 7/7/128 37/53/129 40/56/130
f 22/38/131 24/40/132 41/58/133 42/57/134
f 24/40/135 8/8/136 43/59/137 41/58/138
f 8/8/139 13/23/140 44/60/141 43/59/142
f 13/23/143 22/38/144 42/57/145 44/60/146
f 18/34/147 19/35/148 45/62/149 46/61/150
f 19/35/151 14/25/152 47/63/153 45/62/154
f 14/25/155 2/10/156 48/64/157 47/63/158
f 2/10/159 18/34/160 46/61/161 48/64/162
s 8
f 77/94/163 78/95/164 27/43/165 51/66/166
s 9
f 26/42/167 73/90/168 74/91/169 52/67/170
s off
f 10/18/171 28/44/172 50/65/173 53/69/174
f 25/41/175 5/5/176 54/70/177 49/68/178
f 5/5/179 10/18/180 53/69/181 54/70/182
f 27/98/183 12/99/184 55/100/185 51/101/186
f 12/102/187 6/103/188 56/104/189 55/105/190
f 6/106/191 26/107/192 52/108/193 56/109/194
f 3/110/195 31/111/196 58/112/197 57/113/198
f 31/114/199 30/115/200 59/116/201 58/117/202
f 30/118/203 9/119/204 60/120/205 59/121/206
f 9/122/207 3/123/208 57/124/209 60/125/210
f 29/126/211 32/127/212 61/128/213 62/129/214
f 32/130/215 4/131/216 63/132/217 61/133/218
f 4/134/219 11/135/220 64/136/221 63/137/222
f 11/138/223 29/139/224 62/140/225 64/141/226
f 49/68/227 50/65/228 66/82/229 65/81/230
s 10
f 76/93/231 77/94/232 51/66/233 67/83/234
s off
f 51/66/235 52/67/236 68/84/237 67/83/238
s 11
f 52/67/239 74/91/240 75/92/241 68/84/242
s 4
f 20/36/49 70/87/13 69/86/29 17/32/243
f 20/36/49 21/37/48 71/88/14 70/87/13
f 21/37/48 23/39/244 72/89/31 71/88/14
s 3
f 23/39/57 25/41/56 73/90/10 72/89/9
s 9
f 74/91/169 73/90/168 25/41/245 49/68/246
s 11
f 75/92/241 74/91/240 49/68/247 65/81/248
s 7
f 65/81/249 66/82/250 76/93/36 75/92/35
s 10
f 50/65/251 77/94/232 76/93/231 66/82/252
s 8
f 28/44/253 78/95/164 77/94/163 50/65/254
s 2
f 79/96/8 78/95/7 28/44/64 30/46/63
f 30/46/63 31/47/255 80/97/25 79/96/8
s 1
f 31/47/97 17/31/96 69/85/94 80/97/93
